# xmcd
# 
# Track frame offsets:
#     150
#     19122
#     34612
#     56102
#     77967
#     93565
#     116490
#     131760
#     150170
#     170865
#     184105
#     203237
# 
# Disc length: 3164
# 
# Revision: 4
# Processed by: cddbd v1.5.2PL0 Copyright (c) Steve Scherf et al.
# Submitted via: fre:ac v1.0.27
# 
DISCID=9f0c5a0c
DTITLE=Various Artists (DJ Spinna) - Strange Games and Things
DYEAR=2001
DGENRE=R&B
TTITLE0=Love Unlimited Orchestra - Strange Games and Things
TTITLE1=Johnny Bristol  - If I Can't Stop You
TTITLE2=Foxy - Madamoiselle
TTITLE3=Barkays - You Can't Run Away
TTITLE4=Minnie Ripperton - Reasons
TTITLE5=Starpoint - Bring Your Sweet Loving Back
TTITLE6=Father's Children - Hollywood Dreaming
TTITLE7=Lemuria - Hunk of Heaven
TTITLE8=Linda Williams - Elevate Your Mind
TTITLE9=Gwen McRae - 90% of Me is You
TTITLE10=Ray Goodman and Brown - Another Day
TTITLE11=Eddie Kendricks - Girl You Need a Change of Mind
EXTD=
EXTT0=
EXTT1=
EXTT2=
EXTT3=
EXTT4=
EXTT5=
EXTT6=
EXTT7=
EXTT8=
EXTT9=
EXTT10=
EXTT11=
PLAYORDER=
